# xmcd
#
# Track frame offsets: 
#        150
#        41137
#        60996
#        89779
#        110755
#        133777
#        156524
#        176718
#        196635
#        218482
#        232447
#
# Disc length: 3182 seconds
#
# Revision: 3
# Processed by: cddbd v1.5.2PL0 Copyright (c) Steve Scherf et al.
# Submitted via: ExactAudioCopyFreeDBPlugin 1.0
#
DISCID=a50c6c0b
DTITLE=The Isley Brothers - Inside You
DYEAR=1981
DGENRE=Rhythm and Blues
TTITLE0=Inside You (Parts I and II)
TTITLE1=Baby Hold On
TTITLE2=Don't Hold Back Your Love (Parts I and II)
TTITLE3=First Love
TTITLE4=Love Merry-Go-Round
TTITLE5=Welcome Into My Heart
TTITLE6=Love Zone
TTITLE7=Inside You (Part I) (single version)
TTITLE8=Inside You (Part II) (single version)
TTITLE9=First Love (instrumental)
TTITLE10=Playin' for the Funk  (Love Zone outtake)
EXTD=
EXTT0=
EXTT1=
EXTT2=
EXTT3=
EXTT4=
EXTT5=
EXTT6=
EXTT7=
EXTT8=
EXTT9=
EXTT10=
PLAYORDER=
